<?xml version="1.0" encoding="utf-8"?>
<!-- Generator: Adobe Illustrator 27.2.0, SVG Export Plug-In . SVG Version: 6.00 Build 0)  -->
<svg version="1.1" id="Calque_1" xmlns="http://www.w3.org/2000/svg" xmlns:xlink="http://www.w3.org/1999/xlink" x="0px" y="0px"
	 viewBox="0 0 135 135" style="enable-background:new 0 0 135 135;" xml:space="preserve">
<style type="text/css">
	.st0{fill:#FBFCFD;stroke:#A1ACBA;stroke-width:4;}
	.st1{fill:#ECF1FF;}
	.st2{fill:none;stroke:#A1ACBA;stroke-width:5;stroke-linecap:round;}
	.st3{fill:none;stroke:#A1ACBA;stroke-width:5;stroke-linecap:round;stroke-linejoin:round;}
	.st4{fill:#BA131A;stroke:#BA131A;}
	.st5{fill:#FFFFFF;}
	.st6{fill:#BA131A;}
</style>
<g>
	<path class="st0" d="M67.5,123.1c30.7,0,55.6-24.9,55.6-55.6S98.2,11.9,67.5,11.9S11.9,36.8,11.9,67.5S36.8,123.1,67.5,123.1z"/>
	<path class="st1" d="M102.4,27.6c12.1,10.3,19.1,25.2,19,41c-0.1,29.1-24,52.7-53.5,52.8c-16,0-31.1-6.8-41.5-18.8
		c9.9,8.4,22.6,13,35.6,13c29.5-0.1,53.3-23.7,53.5-52.8C115.5,49.8,110.9,37.3,102.4,27.6z"/>
	<path class="st2" d="M51.6,62.5c-3.3-3.3-8.6-3.3-11.9,0 M95.4,62.5c-3.3-3.3-8.6-3.3-11.9,0"/>
	<path class="st3" d="M45.6,84.3c12.1,12.1,31.7,12.1,43.8,0"/>
	<g>
		<g>
			<path class="st4" d="M109.2,28.2c-0.7,0-1.5,0.1-2.2,0.1c-0.8,0-1.6,0.1-2.3,0.1c-12,0.6-24.5,0.9-37.5,0.9
				c-12.7,0-25-0.3-36.8-0.9c-0.8,0-1.6-0.1-2.3-0.1c-0.7,0-1.5-0.1-2.2-0.1c-4.4,4.7-8.1,10.2-10.8,16.2c0.6,0.1,1.1,0.2,1.7,0.2
				c0.6,0.1,1.2,0.2,1.8,0.2C33,46.7,49.3,48,67.1,48c18.2,0,34.7-1.3,49.3-3.1c0.6-0.1,1.2-0.2,1.8-0.2c0.6-0.1,1.2-0.2,1.7-0.2
				C117.3,38.4,113.6,32.9,109.2,28.2z"/>
		</g>
		<g>
			<g>
				<path class="st5" d="M45.8,42.3c-0.7,0.3-1.3,0.4-1.9,0.3c-1-0.1-2-0.5-2.8-1.2c-1.1-0.9-1.6-2-1.6-3.4c0-1.4,0.5-2.5,1.6-3.3
					c0.8-0.7,1.8-1,2.8-1c0.6,0,1.2,0.2,1.9,0.5c0,1,0,1.5,0,2.5c-0.2-0.2-0.4-0.4-0.6-0.5c-0.4-0.2-0.8-0.3-1.2-0.3
					c-0.6,0-1,0.2-1.4,0.5c-0.5,0.4-0.8,1-0.8,1.7c0,0.7,0.3,1.3,0.8,1.8c0.4,0.4,0.9,0.6,1.5,0.6c0.4,0,0.8-0.1,1.2-0.3
					c0.2-0.1,0.4-0.3,0.6-0.6C45.8,40.6,45.8,41.2,45.8,42.3z"/>
				<path class="st5" d="M55,42.9c-0.9,0-1.4-0.1-2.3-0.1c-0.2-0.6-0.3-1-0.5-1.7c-1.2,0-1.8-0.1-3-0.1c-0.2,0.7-0.3,1-0.6,1.6
					c-0.9,0-1.4-0.1-2.3-0.1c1.2-3.4,1.9-5.2,3.1-8.4c0.9,0,1.4,0,2.3,0.1C53.1,37.4,53.8,39.3,55,42.9z M51.6,39.2
					c-0.4-1.2-0.5-1.7-0.9-2.7c-0.4,1-0.5,1.5-0.9,2.7C50.5,39.1,50.9,39.2,51.6,39.2z"/>
				<path class="st5" d="M62.2,36.7c0,0.6-0.2,1.2-0.5,1.7c-0.5,0.7-1.2,1.2-2.3,1.1c-0.5,0-0.8,0-1.3,0c0,1.4,0,2.2,0,3.4
					c-0.9,0-1.3,0-2.1-0.1c0-3.6,0-5.5,0-8.7c1.4,0,2,0.1,3.4,0.1c1,0,1.7,0.3,2.2,0.8C62,35.6,62.2,36.1,62.2,36.7z M60,36.7
					c0-0.3-0.1-0.5-0.3-0.6c-0.2-0.2-0.5-0.2-0.9-0.2c-0.3,0-0.4,0-0.7,0c0,0.7,0,1,0,1.8c0.3,0,0.4,0,0.7,0c0.5,0,0.8-0.1,1-0.3
					C59.9,37.2,60,37,60,36.7z"/>
				<path class="st5" d="M68.2,36c-0.7,0-1.1,0-1.8,0c0,2,0,4.4,0,7.1c-0.9,0-1.3,0-2.1,0c0-2.8,0-5.1,0-7.1c-0.7,0-1,0-1.7,0
					c0-0.6,0-0.9,0-1.5c2.3,0,3.4,0.1,5.7,0.1C68.2,35.2,68.2,35.4,68.2,36z"/>
				<path class="st5" d="M71.3,43.1c-0.9,0-1.3,0-2.1,0c0-3.6,0-5.5,0-8.7c0.9,0,1.3,0,2.1,0C71.3,37.6,71.3,39.5,71.3,43.1z"/>
				<path class="st5" d="M80.8,34.2c-1.4,3.3-2.1,5.1-3.5,8.8c-0.7,0-1,0-1.7,0c-1.4-3.6-2.1-5.5-3.4-8.6c0.9,0,1.4,0,2.3,0
					c0.8,1.9,1.2,2.2,2,4.6c0.8-2.4,1.2-2.8,2-4.7C79.4,34.3,79.8,34.2,80.8,34.2z"/>
				<path class="st5" d="M86.3,42.7c-1.9,0.1-2.8,0.1-4.7,0.2c0-3.6,0-5.4,0-8.7c1.9-0.1,2.8-0.1,4.7-0.1c0,0.7,0,1,0,1.7
					c-1,0-1.5,0-2.5,0c0,0.5,0,0.8,0,1.3c1,0,1.4,0,2.4,0c0,0.7,0,1,0,1.8c-1,0-1.4,0-2.4,0c0,0.7,0,1,0,1.8c1,0,1.5,0,2.5-0.1
					C86.3,41.5,86.3,41.9,86.3,42.7z"/>
				<path class="st5" d="M95.5,42.1c-0.9,0.1-1.4,0.1-2.3,0.2c-0.2-0.6-0.3-0.9-0.5-1.5c-1.2,0.1-1.8,0.1-3,0.1
					c-0.2,0.6-0.3,1-0.6,1.6c-0.9,0.1-1.4,0.1-2.3,0.1c1.3-3.6,1.9-5.3,3.2-8.7c0.9,0,1.4,0,2.3,0C93.6,37.2,94.2,38.9,95.5,42.1z
					 M92.1,39.1c-0.3-1.1-0.5-1.6-0.9-2.7c-0.4,1-0.5,1.5-0.9,2.7C91,39.1,91.4,39.1,92.1,39.1z"/>
			</g>
		</g>
	</g>
</g>
<path class="st6" d="M107.9,30.3c0.4-2,1.2-5.2,3.5-8.3c6.1-8.5,18.9-12,18.9-12l0,0c-3.1,2.4-4.4,4.8-5,6.5
	c-0.3,0.8-0.3,1.1-0.8,2.8c-1,3.3-1.5,4.9-2.3,6.1c-2.8,4.2-8.8,4.8-10.3,4.9C110.2,30.5,108.8,30.4,107.9,30.3z"/>
<path class="st6" d="M109.6,29c1.5-0.6,4-1.5,7.1-1.5c8.5,0.2,16.6,7.2,16.6,7.2l0,0c-3-0.9-5.2-0.7-6.6-0.3
	c-0.7,0.2-0.8,0.3-2.2,0.7c-2.6,0.8-4,1.2-5.1,1.2c-4.1,0.1-7.2-3.7-8-4.6C110.5,30.7,110,29.7,109.6,29z"/>
</svg>
